
<svg fill="#000000" height="40px" width="40px" version="1.1" id="Layer_1" xmlns="http://www.w3.org/2000/svg" xmlns:xlink="http://www.w3.org/1999/xlink" 
	 viewBox="0 0 512 512" xml:space="preserve">
<g>
	<g>
		<path d="M461.913,406.261H361.739c-9.206,0-16.696-7.49-16.696-16.696v-83.478h83.478c27.619,0,50.087-22.468,50.087-50.087
			s-22.468-50.087-50.087-50.087h-83.478V139.13h150.261c9.223,0,16.696-7.473,16.696-16.696c0-46.032-37.446-83.478-83.478-83.478
			H144.696V22.261c0-9.223-7.473-16.696-16.696-16.696c-9.223,0-16.696,7.473-16.696,16.696v16.696H50.087
			C22.468,38.957,0,61.424,0,89.044c0,27.619,22.468,50.087,50.087,50.087h61.217v16.696c0,9.223,7.473,16.696,16.696,16.696
			c9.223,0,16.696-7.473,16.696-16.696V139.13h33.391v66.783H94.609c-9.223,0-16.696,7.473-16.696,16.696v66.783
			c0,9.223,7.473,16.696,16.696,16.696h83.478v83.478c0,9.206-7.49,16.696-16.696,16.696H61.217
			c-27.619,0-50.087,22.468-50.087,50.087c0,27.619,22.468,50.087,50.087,50.087h400.696c27.619,0,50.087-22.468,50.087-50.087
			C512,428.729,489.532,406.261,461.913,406.261z M261.397,439.984c-9.223,0-16.858-7.635-16.858-16.858
			c0-9.223,7.635-16.865,16.858-16.865c9.223,0,16.864,7.641,16.864,16.864C278.261,432.347,270.62,439.984,261.397,439.984z
			 M311.652,342.555c-5.247-1.871-10.812-3.076-16.696-3.076h-66.783c-5.883,0-11.449,1.205-16.696,3.076v-36.468h100.174V342.555z
			 M311.652,205.913H211.478V139.13h100.174V205.913z M328.348,89.044c-9.223,0-16.696,7.473-16.696,16.696H211.478
			c0-9.223-7.473-16.696-16.696-16.696c-9.223,0-16.696,7.473-16.696,16.696h-33.391V72.348h283.826
			c21.767,0,40.337,13.956,47.229,33.391H345.043C345.043,96.516,337.57,89.044,328.348,89.044z" fill= "#ff0000"/>
	</g>
</g>
</svg>